<svg id="Layer_1" data-name="Layer 1" xmlns="http://www.w3.org/2000/svg" viewBox="0 0 163.84 36.25"><defs><style>.cls-1{fill:#3b3c3e;}.cls-2{fill:#005897;}</style></defs><title>WK_logo</title><g id="Group_34" data-name="Group 34"><g id="Group_4" data-name="Group 4"><g id="Group_1" data-name="Group 1"><path id="Path_1" data-name="Path 1" class="cls-1" d="M33.59,13.78h-3L24.45,31.31,18.29,13.78h-3L9.14,31.31,3,13.78H0L7.65,35.56h3L16.8,18,23,35.56h3Z"/><path id="Path_2" data-name="Path 2" class="cls-1" d="M56.56,25.51q0-.42,0-.84a11.57,11.57,0,1,0-1.4,5.53l-2.66-1.49a8.56,8.56,0,0,1-16-3.2ZM45,16.07a8.54,8.54,0,0,1,8.28,6.47H36.73A8.56,8.56,0,0,1,45,16.07Z"/></g><g id="Group_3" data-name="Group 3"><path id="Path_3" data-name="Path 3" class="cls-2" d="M119.82,13.1a11.58,11.58,0,1,0,11.57,11.57A11.58,11.58,0,0,0,119.82,13.1Zm0,16.84a5.27,5.27,0,1,1,5.27-5.27,5.27,5.27,0,0,1-5.27,5.27Z"/><g id="Group_2" data-name="Group 2"><path id="Path_4" data-name="Path 4" class="cls-2" d="M74.61,17.63,85.34,6.89H75.51l-9,9V0a6.89,6.89,0,0,0-7,6.81V35.56h7V25.71l3.17-3.17,8,13H87Z"/></g><path id="Path_5" data-name="Path 5" class="cls-2" d="M158.91,13.78l-4.18,11.89-4.19-11.89h-6.95l-4.18,11.89-4.18-11.89h-7l7.66,21.78h7l4.18-11.89,4.18,11.89h7l5.35-15.22a4.93,4.93,0,0,0-3-6.28,5,5,0,0,0-1.63-.28Z"/><path id="Path_6" data-name="Path 6" class="cls-2" d="M108.2,20.11v-.05c0-.24-.06-.47-.11-.7a7.8,7.8,0,0,0-14.15-2.78v-2.8H87V35.56h7V23.2a3.77,3.77,0,0,1,3.56-3.82,3.67,3.67,0,0,1,3.79,3.56V35.56h6.95V20.9A7,7,0,0,0,108.2,20.11Z"/></g></g></g></svg>