<svg xmlns="http://www.w3.org/2000/svg" width="262.196" height="58.007"><g data-name="Group 35"><g data-name="Group 22"><g data-name="Group 1" fill="#fff"><path data-name="Path 1" d="M53.762 22.057h-4.769l-9.864 28.049-9.864-28.049H24.5l-9.864 28.049-9.864-28.049H0l12.248 34.848h4.769l9.864-28.064 9.864 28.064h4.769z"/><path data-name="Path 2" d="M90.511 40.828c.032-.444.054-.892.054-1.345a18.515 18.515 0 10-2.242 8.84l-4.262-2.373a13.686 13.686 0 01-25.63-5.122zM72.042 25.72A13.677 13.677 0 0185.3 36.068H58.784A13.678 13.678 0 0172.042 25.72z"/></g><g data-name="Group 3"><path data-name="Path 3" d="M191.75 20.959a18.523 18.523 0 1018.524 18.527 18.523 18.523 0 00-18.524-18.527zm0 26.954a8.431 8.431 0 118.431-8.431 8.431 8.431 0 01-8.431 8.431z" fill="#fff"/><g data-name="Group 2"><path data-name="Path 4" d="M119.396 28.211l17.179-17.183H120.84l-14.377 14.377V.005a11.016 11.016 0 00-11.13 11v45.906h11.129V41.144l5.07-5.07 12.835 20.833h14.839z" fill="#fff"/></g><path data-name="Path 5" d="M254.307 22.057l-6.693 19.031-6.691-19.031h-11.131l-6.693 19.031-6.693-19.031h-11.125l12.249 34.851h11.139l6.688-19.027 6.688 19.027h11.138l8.56-24.354a7.883 7.883 0 00-7.437-10.5z" fill="#fff"/><path data-name="Path 6" d="M173.163 32.176c0-.026-.009-.051-.011-.076-.041-.379-.1-.75-.17-1.11a12.487 12.487 0 00-22.643-4.453v-4.48H139.21v34.851h11.129V37.131a6.043 6.043 0 015.7-6.124 5.88 5.88 0 016.061 5.877v20.023h11.129V33.451a12.587 12.587 0 00-.066-1.275z" fill="#fff"/></g></g></g></svg>