<!DOCTYPE svg PUBLIC "-//W3C//DTD SVG 20010904//EN" "http://www.w3.org/TR/2001/REC-SVG-20010904/DTD/svg10.dtd">
<svg version="1.0" xmlns="http://www.w3.org/2000/svg" width="297px" height="66px" viewBox="0 0 2970 660" preserveAspectRatio="xMidYMid meet">
<g id="layer101" fill="#ffffff" stroke="none">
 <path d="M720 640 c-130 -69 -158 -228 -58 -336 74 -81 183 -92 279 -29 43 28 89 112 89 162 l0 33 -180 0 c-119 0 -180 4 -180 10 0 23 31 69 60 90 62 44 147 35 195 -22 24 -28 28 -30 51 -18 13 7 24 18 24 25 0 17 -71 82 -103 94 -45 17 -137 13 -177 -9z m240 -240 c0 -6 -17 -29 -38 -52 -34 -36 -45 -42 -93 -45 -45 -4 -60 -1 -88 19 -19 13 -43 38 -54 56 l-19 32 146 0 c94 0 146 -4 146 -10z"/>
 <path d="M2073 639 c-24 -12 -56 -39 -73 -62 l-30 -41 0 57 0 57 -70 0 -70 0 0 -128 c0 -112 -2 -131 -18 -145 -24 -22 -65 -21 -85 1 -14 15 -17 41 -17 145 l0 127 -153 0 -153 0 -69 -114 -70 -114 -27 26 c-26 24 -28 31 -28 114 l0 89 -67 -3 -68 -3 -3 -225 c-4 -304 0 -342 44 -386 24 -23 44 -34 64 -34 l30 0 0 137 0 138 78 -78 77 -77 93 0 c50 0 92 3 92 8 0 4 -42 50 -94 101 l-95 94 102 150 102 149 3 -186 2 -186 70 0 c58 0 70 3 70 17 0 15 2 15 19 -1 30 -27 85 -38 130 -26 44 11 101 69 101 100 0 29 13 25 34 -10 22 -39 83 -79 135 -91 57 -13 127 5 175 43 25 21 37 26 33 15 -4 -9 -10 -24 -13 -32 -5 -12 6 -15 63 -15 l70 0 35 101 34 102 36 -99 35 -99 69 -3 69 -3 34 102 35 102 32 -89 c18 -49 33 -95 33 -101 1 -22 51 -14 76 12 36 35 32 79 -23 235 l-48 135 -69 0 -69 0 -34 -95 c-18 -52 -34 -96 -36 -97 -1 -1 -18 43 -37 98 l-34 100 -69 -3 -69 -3 -30 -87 c-27 -84 -47 -112 -47 -68 0 26 -26 78 -54 108 -57 63 -171 82 -253 41z m156 -125 c41 -35 43 -89 5 -128 -38 -37 -86 -36 -126 4 -26 27 -30 36 -25 68 12 76 88 105 146 56z"/>
 <path d="M67 458 c-37 -106 -67 -196 -67 -200 0 -17 58 -8 65 9 3 10 27 76 52 148 25 71 46 131 48 133 1 1 26 -65 55 -148 l52 -150 33 0 32 0 48 137 c26 76 50 144 54 150 4 7 29 -54 57 -135 51 -145 52 -147 83 -150 17 -2 31 0 31 4 0 4 -30 94 -67 201 l-68 193 -31 0 -32 0 -52 -150 c-29 -82 -54 -150 -55 -150 -2 0 -27 68 -55 150 l-53 150 -31 0 -32 0 -67 -192z"/>
 </g>

</svg>