<svg xmlns="http://www.w3.org/2000/svg" width="262.196" height="58.007" viewBox="0 0 262.196 58.007">
  <g id="Group_35" data-name="Group 35" transform="translate(-410 -2259)">
    <g id="Group_22" data-name="Group 22" transform="translate(210 2050.389)">
      <g id="Group_1" data-name="Group 1" transform="translate(200 229.571)">
        <path id="Path_1" data-name="Path 1" d="M253.762,259.086h-4.769l-9.864,28.049-9.864-28.049H224.5l-9.864,28.049-9.864-28.049H200l12.248,34.848h4.769l9.864-28.064,9.864,28.064h4.769Z" transform="translate(-200 -257.989)" fill="#fff"/>
        <path id="Path_2" data-name="Path 2" d="M359.462,276.443c.032-.444.054-.892.054-1.345a18.515,18.515,0,1,0-2.242,8.84l-4.262-2.373a13.686,13.686,0,0,1-25.63-5.122Zm-18.469-15.108a13.677,13.677,0,0,1,13.258,10.348H327.735A13.678,13.678,0,0,1,340.993,261.335Z" transform="translate(-268.951 -256.575)" fill="#fff"/>
      </g>
      <g id="Group_3" data-name="Group 3" transform="translate(295.334 208.611)">
        <path id="Path_3" data-name="Path 3" d="M614.931,256.573A18.523,18.523,0,1,0,633.455,275.1,18.523,18.523,0,0,0,614.931,256.573Zm0,26.954a8.431,8.431,0,1,1,8.431-8.431A8.431,8.431,0,0,1,614.931,283.527Z" transform="translate(-518.515 -235.614)" fill="#fff"/>
        <g id="Group_2" data-name="Group 2" transform="translate(0 0)">
          <path id="Path_4" data-name="Path 4" d="M442.221,236.822,459.4,219.639H443.665l-14.377,14.377v-25.4a11.016,11.016,0,0,0-11.13,11v45.906h11.129V249.755l5.07-5.07,12.835,20.833h14.839Z" transform="translate(-418.159 -208.611)" fill="#fff"/>
        </g>
        <path id="Path_5" data-name="Path 5" d="M718.784,259.085l-6.693,19.031L705.4,259.085H694.269l-6.693,19.031-6.693-19.031H669.758l12.249,34.851h11.139l6.688-19.027,6.688,19.027H717.66l8.56-24.354a7.883,7.883,0,0,0-7.437-10.5Z" transform="translate(-559.811 -237.028)" fill="#fff"/>
        <path id="Path_6" data-name="Path 6" d="M552.517,267.791c0-.026-.009-.051-.011-.076-.041-.379-.1-.75-.17-1.11a12.487,12.487,0,0,0-22.643-4.453v-4.48H518.564v34.851h11.129V272.746a6.043,6.043,0,0,1,5.7-6.124,5.88,5.88,0,0,1,6.061,5.877v20.023h11.129V269.066A12.587,12.587,0,0,0,552.517,267.791Z" transform="translate(-474.688 -235.615)" fill="#fff"/>
      </g>
    </g>
  </g>
</svg>
